<svg width="296" height="160" viewBox="0 0 296 160" fill="none" xmlns="http://www.w3.org/2000/svg">
<path d="M9.347 152.45C9.347 153.325 9.15633 154.118 8.775 154.829C8.40233 155.54 7.88233 156.103 7.215 156.519C6.54767 156.926 5.79367 157.13 4.953 157.13C4.11233 157.13 3.35833 156.926 2.691 156.519C2.02367 156.103 1.49933 155.54 1.118 154.829C0.745333 154.118 0.559 153.325 0.559 152.45C0.559 151.575 0.745333 150.782 1.118 150.071C1.49933 149.36 2.02367 148.801 2.691 148.394C3.35833 147.978 4.11233 147.77 4.953 147.77C5.79367 147.77 6.54767 147.978 7.215 148.394C7.88233 148.801 8.40233 149.36 8.775 150.071C9.15633 150.782 9.347 151.575 9.347 152.45ZM8.008 152.45C8.008 151.8 7.878 151.215 7.618 150.695C7.358 150.166 6.994 149.755 6.526 149.46C6.06667 149.157 5.54233 149.005 4.953 149.005C4.36367 149.005 3.835 149.152 3.367 149.447C2.90767 149.742 2.548 150.153 2.288 150.682C2.028 151.202 1.898 151.791 1.898 152.45C1.898 153.1 2.028 153.689 2.288 154.218C2.548 154.738 2.90767 155.15 3.367 155.453C3.835 155.748 4.36367 155.895 4.953 155.895C5.54233 155.895 6.06667 155.748 6.526 155.453C6.994 155.15 7.358 154.738 7.618 154.218C7.878 153.689 8.008 153.1 8.008 152.45ZM13.9559 150.032C14.6406 150.032 15.2082 150.14 15.6589 150.357C16.1182 150.574 16.3479 150.851 16.3479 151.189C16.3479 151.336 16.3002 151.471 16.2049 151.592C16.1096 151.705 15.9882 151.761 15.8409 151.761C15.7282 151.761 15.6372 151.744 15.5679 151.709C15.5072 151.674 15.4206 151.618 15.3079 151.54C15.2559 151.488 15.1736 151.427 15.0609 151.358C14.9569 151.306 14.8096 151.263 14.6189 151.228C14.4282 151.193 14.2549 151.176 14.0989 151.176C13.6482 151.176 13.2496 151.28 12.9029 151.488C12.5562 151.696 12.2876 151.986 12.0969 152.359C11.9062 152.723 11.8109 153.13 11.8109 153.581C11.8109 154.04 11.9019 154.452 12.0839 154.816C12.2746 155.18 12.5389 155.466 12.8769 155.674C13.2149 155.882 13.6006 155.986 14.0339 155.986C14.4846 155.986 14.8486 155.917 15.1259 155.778C15.1866 155.743 15.2689 155.687 15.3729 155.609C15.4596 155.54 15.5332 155.488 15.5939 155.453C15.6632 155.418 15.7456 155.401 15.8409 155.401C16.0142 155.401 16.1486 155.457 16.2439 155.57C16.3479 155.674 16.3999 155.813 16.3999 155.986C16.3999 156.168 16.2829 156.35 16.0489 156.532C15.8236 156.705 15.5159 156.848 15.1259 156.961C14.7446 157.074 14.3329 157.13 13.8909 157.13C13.2322 157.13 12.6516 156.978 12.1489 156.675C11.6462 156.363 11.2562 155.938 10.9789 155.401C10.7102 154.855 10.5759 154.248 10.5759 153.581C10.5759 152.914 10.7189 152.311 11.0049 151.774C11.2909 151.228 11.6896 150.803 12.2009 150.5C12.7122 150.188 13.2972 150.032 13.9559 150.032ZM19.5806 151.397V155.271C19.5806 155.704 19.7756 155.921 20.1656 155.921C20.2263 155.921 20.3086 155.908 20.4126 155.882C20.5166 155.847 20.599 155.83 20.6596 155.83C20.7723 155.83 20.8676 155.878 20.9456 155.973C21.0236 156.068 21.0626 156.19 21.0626 156.337C21.0626 156.519 20.9586 156.675 20.7506 156.805C20.5426 156.935 20.3086 157 20.0486 157C19.7626 157 19.4983 156.97 19.2556 156.909C19.0216 156.848 18.8093 156.697 18.6186 156.454C18.4366 156.203 18.3456 155.826 18.3456 155.323V151.397H17.5916C17.427 151.397 17.2883 151.345 17.1756 151.241C17.0716 151.128 17.0196 150.99 17.0196 150.825C17.0196 150.66 17.0716 150.526 17.1756 150.422C17.2883 150.318 17.427 150.266 17.5916 150.266H18.3456V149.174C18.3456 149.001 18.402 148.853 18.5146 148.732C18.636 148.611 18.7876 148.55 18.9696 148.55C19.143 148.55 19.286 148.611 19.3986 148.732C19.52 148.853 19.5806 149.001 19.5806 149.174V150.266H20.6596C20.8243 150.266 20.9586 150.322 21.0626 150.435C21.1753 150.539 21.2316 150.673 21.2316 150.838C21.2316 151.003 21.1753 151.137 21.0626 151.241C20.9586 151.345 20.8243 151.397 20.6596 151.397H19.5806Z" fill="#8B98B1"/>
<path d="M69.6978 147.9C69.8625 147.9 69.9968 147.956 70.1008 148.069C70.2048 148.173 70.2568 148.307 70.2568 148.472V156.363C70.2568 156.545 70.1962 156.697 70.0748 156.818C69.9622 156.939 69.8148 157 69.6328 157C69.5375 157 69.4422 156.987 69.3468 156.961C69.2602 156.926 69.1908 156.879 69.1388 156.818L64.0298 150.162V156.428C64.0298 156.593 63.9735 156.731 63.8608 156.844C63.7568 156.948 63.6225 157 63.4578 157C63.2932 157 63.1588 156.948 63.0548 156.844C62.9508 156.731 62.8988 156.593 62.8988 156.428V148.524C62.8988 148.342 62.9552 148.195 63.0678 148.082C63.1892 147.961 63.3365 147.9 63.5098 147.9C63.6138 147.9 63.7135 147.922 63.8088 147.965C63.9042 148 63.9778 148.052 64.0298 148.121L69.1258 154.79V148.472C69.1258 148.307 69.1778 148.173 69.2818 148.069C69.3945 147.956 69.5332 147.9 69.6978 147.9ZM78.7773 153.594C78.7773 154.27 78.6256 154.877 78.3223 155.414C78.019 155.951 77.603 156.372 77.0743 156.675C76.5543 156.978 75.978 157.13 75.3453 157.13C74.7126 157.13 74.132 156.978 73.6033 156.675C73.0833 156.372 72.6716 155.951 72.3683 155.414C72.065 154.877 71.9133 154.27 71.9133 153.594C71.9133 152.918 72.065 152.307 72.3683 151.761C72.6716 151.215 73.0833 150.79 73.6033 150.487C74.132 150.184 74.7126 150.032 75.3453 150.032C75.978 150.032 76.5543 150.184 77.0743 150.487C77.603 150.79 78.019 151.215 78.3223 151.761C78.6256 152.307 78.7773 152.918 78.7773 153.594ZM77.5423 153.594C77.5423 153.126 77.4426 152.71 77.2433 152.346C77.0526 151.973 76.7883 151.687 76.4503 151.488C76.121 151.28 75.7526 151.176 75.3453 151.176C74.938 151.176 74.5653 151.28 74.2273 151.488C73.898 151.687 73.6336 151.973 73.4343 152.346C73.2436 152.71 73.1483 153.126 73.1483 153.594C73.1483 154.053 73.2436 154.465 73.4343 154.829C73.6336 155.193 73.898 155.479 74.2273 155.687C74.5653 155.886 74.938 155.986 75.3453 155.986C75.7526 155.986 76.121 155.886 76.4503 155.687C76.7883 155.479 77.0526 155.193 77.2433 154.829C77.4426 154.465 77.5423 154.053 77.5423 153.594ZM85.4146 150.123C85.5793 150.123 85.718 150.179 85.8306 150.292C85.9433 150.396 85.9996 150.522 85.9996 150.669C85.9996 150.747 85.9693 150.855 85.9086 150.994L83.4386 156.61C83.3866 156.723 83.313 156.814 83.2176 156.883C83.1223 156.952 83.0183 156.991 82.9056 157C82.767 157.017 82.637 156.991 82.5156 156.922C82.403 156.853 82.3163 156.749 82.2556 156.61L79.7856 150.994C79.7423 150.864 79.7206 150.756 79.7206 150.669C79.7206 150.53 79.777 150.405 79.8896 150.292C80.0023 150.179 80.1496 150.123 80.3316 150.123C80.4616 150.123 80.5786 150.158 80.6826 150.227C80.7866 150.288 80.869 150.383 80.9296 150.513L82.8926 155.076L84.8556 150.513C84.977 150.253 85.1633 150.123 85.4146 150.123Z" fill="#8B98B1"/>
<path d="M137.217 147.9C138.032 147.9 138.729 148.104 139.31 148.511C139.891 148.918 140.328 149.469 140.623 150.162C140.918 150.847 141.065 151.609 141.065 152.45C141.065 153.299 140.918 154.071 140.623 154.764C140.328 155.449 139.891 155.995 139.31 156.402C138.729 156.801 138.032 157 137.217 157H134.019C133.846 157 133.698 156.939 133.577 156.818C133.456 156.697 133.395 156.549 133.395 156.376V148.524C133.395 148.351 133.456 148.203 133.577 148.082C133.698 147.961 133.846 147.9 134.019 147.9H137.217ZM137.087 155.804C137.971 155.804 138.634 155.492 139.076 154.868C139.518 154.235 139.739 153.429 139.739 152.45C139.739 151.479 139.514 150.678 139.063 150.045C138.621 149.412 137.962 149.096 137.087 149.096H134.682V155.804H137.087ZM148.704 153.334C148.695 153.49 148.63 153.624 148.509 153.737C148.388 153.841 148.245 153.893 148.08 153.893H143.504C143.565 154.526 143.803 155.033 144.219 155.414C144.644 155.795 145.159 155.986 145.766 155.986C146.182 155.986 146.52 155.925 146.78 155.804C147.04 155.683 147.27 155.527 147.469 155.336C147.599 155.258 147.725 155.219 147.846 155.219C147.993 155.219 148.115 155.271 148.21 155.375C148.314 155.479 148.366 155.6 148.366 155.739C148.366 155.921 148.279 156.086 148.106 156.233C147.855 156.484 147.521 156.697 147.105 156.87C146.689 157.043 146.264 157.13 145.831 157.13C145.129 157.13 144.509 156.983 143.972 156.688C143.443 156.393 143.032 155.982 142.737 155.453C142.451 154.924 142.308 154.326 142.308 153.659C142.308 152.931 142.455 152.294 142.75 151.748C143.053 151.193 143.448 150.769 143.933 150.474C144.427 150.179 144.956 150.032 145.519 150.032C146.074 150.032 146.594 150.175 147.079 150.461C147.564 150.747 147.954 151.141 148.249 151.644C148.544 152.147 148.695 152.71 148.704 153.334ZM145.519 151.176C145.034 151.176 144.613 151.315 144.258 151.592C143.903 151.861 143.669 152.281 143.556 152.853H147.391V152.749C147.348 152.29 147.14 151.913 146.767 151.618C146.403 151.323 145.987 151.176 145.519 151.176ZM153.167 150.032C153.852 150.032 154.419 150.14 154.87 150.357C155.329 150.574 155.559 150.851 155.559 151.189C155.559 151.336 155.511 151.471 155.416 151.592C155.321 151.705 155.199 151.761 155.052 151.761C154.939 151.761 154.848 151.744 154.779 151.709C154.718 151.674 154.632 151.618 154.519 151.54C154.467 151.488 154.385 151.427 154.272 151.358C154.168 151.306 154.021 151.263 153.83 151.228C153.639 151.193 153.466 151.176 153.31 151.176C152.859 151.176 152.461 151.28 152.114 151.488C151.767 151.696 151.499 151.986 151.308 152.359C151.117 152.723 151.022 153.13 151.022 153.581C151.022 154.04 151.113 154.452 151.295 154.816C151.486 155.18 151.75 155.466 152.088 155.674C152.426 155.882 152.812 155.986 153.245 155.986C153.696 155.986 154.06 155.917 154.337 155.778C154.398 155.743 154.48 155.687 154.584 155.609C154.671 155.54 154.744 155.488 154.805 155.453C154.874 155.418 154.957 155.401 155.052 155.401C155.225 155.401 155.36 155.457 155.455 155.57C155.559 155.674 155.611 155.813 155.611 155.986C155.611 156.168 155.494 156.35 155.26 156.532C155.035 156.705 154.727 156.848 154.337 156.961C153.956 157.074 153.544 157.13 153.102 157.13C152.443 157.13 151.863 156.978 151.36 156.675C150.857 156.363 150.467 155.938 150.19 155.401C149.921 154.855 149.787 154.248 149.787 153.581C149.787 152.914 149.93 152.311 150.216 151.774C150.502 151.228 150.901 150.803 151.412 150.5C151.923 150.188 152.508 150.032 153.167 150.032Z" fill="#60708F"/>
<path d="M203.854 157.13C203.343 157.13 202.871 157.009 202.437 156.766C202.013 156.523 201.675 156.19 201.423 155.765C201.345 155.644 201.306 155.527 201.306 155.414C201.306 155.249 201.371 155.111 201.501 154.998C201.631 154.877 201.766 154.816 201.904 154.816C202.095 154.816 202.29 154.924 202.489 155.141C202.827 155.644 203.282 155.895 203.854 155.895C204.331 155.895 204.734 155.735 205.063 155.414C205.393 155.093 205.557 154.699 205.557 154.231V148.524C205.557 148.351 205.622 148.203 205.752 148.082C205.882 147.961 206.034 147.9 206.207 147.9C206.398 147.9 206.55 147.961 206.662 148.082C206.784 148.195 206.844 148.342 206.844 148.524V154.231C206.844 154.76 206.714 155.245 206.454 155.687C206.194 156.129 205.835 156.48 205.375 156.74C204.925 157 204.418 157.13 203.854 157.13ZM214.431 150.097C214.613 150.097 214.76 150.158 214.873 150.279C214.994 150.392 215.055 150.543 215.055 150.734V156.376C215.055 156.549 214.994 156.697 214.873 156.818C214.76 156.939 214.613 157 214.431 157C214.249 157 214.101 156.944 213.989 156.831C213.876 156.71 213.82 156.558 213.82 156.376V156.038C213.594 156.341 213.287 156.601 212.897 156.818C212.507 157.026 212.086 157.13 211.636 157.13C211.046 157.13 210.509 156.978 210.024 156.675C209.547 156.372 209.17 155.951 208.893 155.414C208.624 154.868 208.49 154.257 208.49 153.581C208.49 152.905 208.624 152.298 208.893 151.761C209.17 151.215 209.547 150.79 210.024 150.487C210.5 150.184 211.025 150.032 211.597 150.032C212.056 150.032 212.481 150.127 212.871 150.318C213.269 150.509 213.586 150.751 213.82 151.046V150.734C213.82 150.552 213.876 150.4 213.989 150.279C214.101 150.158 214.249 150.097 214.431 150.097ZM211.779 155.986C212.186 155.986 212.546 155.882 212.858 155.674C213.178 155.466 213.425 155.18 213.599 154.816C213.781 154.452 213.872 154.04 213.872 153.581C213.872 153.13 213.781 152.723 213.599 152.359C213.425 151.995 213.178 151.709 212.858 151.501C212.546 151.284 212.186 151.176 211.779 151.176C211.371 151.176 211.007 151.28 210.687 151.488C210.375 151.696 210.128 151.982 209.946 152.346C209.772 152.71 209.686 153.122 209.686 153.581C209.686 154.04 209.772 154.452 209.946 154.816C210.128 155.18 210.375 155.466 210.687 155.674C211.007 155.882 211.371 155.986 211.779 155.986ZM220.427 150.032C221.987 150.032 222.767 150.968 222.767 152.84V156.376C222.767 156.549 222.706 156.697 222.585 156.818C222.472 156.939 222.325 157 222.143 157C221.97 157 221.822 156.939 221.701 156.818C221.588 156.697 221.532 156.549 221.532 156.376V152.853C221.532 152.342 221.415 151.934 221.181 151.631C220.947 151.328 220.566 151.176 220.037 151.176C219.69 151.176 219.374 151.254 219.088 151.41C218.811 151.557 218.59 151.761 218.425 152.021C218.269 152.272 218.191 152.55 218.191 152.853V156.376C218.191 156.549 218.13 156.697 218.009 156.818C217.896 156.939 217.749 157 217.567 157C217.385 157 217.238 156.944 217.125 156.831C217.012 156.71 216.956 156.558 216.956 156.376V150.812C216.956 150.639 217.012 150.491 217.125 150.37C217.246 150.249 217.394 150.188 217.567 150.188C217.749 150.188 217.896 150.249 218.009 150.37C218.13 150.491 218.191 150.639 218.191 150.812V151.267C218.416 150.92 218.728 150.63 219.127 150.396C219.534 150.153 219.968 150.032 220.427 150.032Z" fill="#8B98B1"/>
<path d="M270.239 149.096V151.787H273.437C273.619 151.787 273.766 151.843 273.879 151.956C274 152.069 274.061 152.216 274.061 152.398C274.061 152.554 274 152.688 273.879 152.801C273.766 152.914 273.619 152.97 273.437 152.97H270.239V156.376C270.239 156.549 270.174 156.697 270.044 156.818C269.923 156.939 269.775 157 269.602 157C269.42 157 269.268 156.939 269.147 156.818C269.026 156.697 268.965 156.549 268.965 156.376V148.524C268.965 148.351 269.026 148.203 269.147 148.082C269.268 147.961 269.416 147.9 269.589 147.9H274.022C274.204 147.9 274.351 147.956 274.464 148.069C274.585 148.182 274.646 148.329 274.646 148.511C274.646 148.667 274.585 148.806 274.464 148.927C274.343 149.04 274.195 149.096 274.022 149.096H270.239ZM282.001 153.334C281.993 153.49 281.928 153.624 281.806 153.737C281.685 153.841 281.542 153.893 281.377 153.893H276.801C276.862 154.526 277.1 155.033 277.516 155.414C277.941 155.795 278.457 155.986 279.063 155.986C279.479 155.986 279.817 155.925 280.077 155.804C280.337 155.683 280.567 155.527 280.766 155.336C280.896 155.258 281.022 155.219 281.143 155.219C281.291 155.219 281.412 155.271 281.507 155.375C281.611 155.479 281.663 155.6 281.663 155.739C281.663 155.921 281.577 156.086 281.403 156.233C281.152 156.484 280.818 156.697 280.402 156.87C279.986 157.043 279.562 157.13 279.128 157.13C278.426 157.13 277.807 156.983 277.269 156.688C276.741 156.393 276.329 155.982 276.034 155.453C275.748 154.924 275.605 154.326 275.605 153.659C275.605 152.931 275.753 152.294 276.047 151.748C276.351 151.193 276.745 150.769 277.23 150.474C277.724 150.179 278.253 150.032 278.816 150.032C279.371 150.032 279.891 150.175 280.376 150.461C280.862 150.747 281.252 151.141 281.546 151.644C281.841 152.147 281.993 152.71 282.001 153.334ZM278.816 151.176C278.331 151.176 277.911 151.315 277.555 151.592C277.2 151.861 276.966 152.281 276.853 152.853H280.688V152.749C280.645 152.29 280.437 151.913 280.064 151.618C279.7 151.323 279.284 151.176 278.816 151.176ZM286.92 150.032C287.509 150.032 288.042 150.184 288.519 150.487C288.995 150.79 289.368 151.211 289.637 151.748C289.914 152.285 290.053 152.892 290.053 153.568C290.053 154.244 289.914 154.855 289.637 155.401C289.368 155.947 288.995 156.372 288.519 156.675C288.042 156.978 287.518 157.13 286.946 157.13C286.495 157.13 286.075 157.03 285.685 156.831C285.295 156.632 284.978 156.385 284.736 156.09V156.467C284.736 156.64 284.675 156.788 284.554 156.909C284.441 157.03 284.294 157.091 284.112 157.091C283.938 157.091 283.791 157.035 283.67 156.922C283.557 156.801 283.501 156.649 283.501 156.467V148.004C283.501 147.822 283.557 147.675 283.67 147.562C283.782 147.441 283.93 147.38 284.112 147.38C284.294 147.38 284.441 147.441 284.554 147.562C284.675 147.683 284.736 147.831 284.736 148.004V151.176C284.944 150.864 285.247 150.595 285.646 150.37C286.044 150.145 286.469 150.032 286.92 150.032ZM286.777 155.986C287.175 155.986 287.535 155.882 287.856 155.674C288.176 155.457 288.423 155.167 288.597 154.803C288.779 154.43 288.87 154.019 288.87 153.568C288.87 153.117 288.779 152.71 288.597 152.346C288.423 151.982 288.176 151.696 287.856 151.488C287.535 151.28 287.175 151.176 286.777 151.176C286.369 151.176 286.005 151.28 285.685 151.488C285.364 151.696 285.113 151.982 284.931 152.346C284.757 152.701 284.671 153.109 284.671 153.568C284.671 154.027 284.757 154.439 284.931 154.803C285.113 155.167 285.364 155.457 285.685 155.674C286.005 155.882 286.369 155.986 286.777 155.986Z" fill="#8B98B1"/>
<path d="M3 87.5C6 88.5 13.2861 89.2403 20.7763 81.3097C30.1391 71.3964 54.9229 36.6999 81.9098 56.5265C92.9248 65.5113 114.588 63.5025 124.868 56.5265C131.106 52.2936 143.043 45.6847 152.406 50.4683C173.848 61.4231 193.712 26.7865 206.93 11.9166C221.953 -4.98315 260.353 -5.53395 294.5 33.9461" stroke="#8438FF" stroke-width="2" stroke-linecap="round"/>
<path d="M20.7763 81.3097C13.2861 89.2403 6 88.5 3 87.5V112H294.5V33.9461C260.353 -5.53395 221.953 -4.98315 206.93 11.9166C193.712 26.7865 173.848 61.4231 152.406 50.4683C143.043 45.6847 131.106 52.2936 124.868 56.5265C114.588 63.5025 92.9248 65.5113 81.9098 56.5265C54.9229 36.6999 30.1391 71.3964 20.7763 81.3097Z" fill="url(#paint0_linear_36_741)" fill-opacity="0.5"/>
<circle cx="143.5" cy="49" r="4.5" fill="#8438FF" stroke="white"/>
<rect x="113.5" y="1" width="60.2963" height="28.7778" rx="7" fill="#8438FF"/>
<path d="M145.734 33.2C144.503 35.3333 143.887 36.4 142.963 36.4C142.039 36.4 141.423 35.3333 140.192 33.2L139.207 31.4944C137.975 29.3611 137.359 28.2944 137.821 27.4944C138.283 26.6944 139.515 26.6944 141.978 26.6944L143.948 26.6944C146.411 26.6944 147.643 26.6944 148.105 27.4944C148.566 28.2944 147.951 29.3611 146.719 31.4944L145.734 33.2Z" fill="#8438FF"/>
<defs>
<linearGradient id="paint0_linear_36_741" x1="123.5" y1="6" x2="139" y2="121.5" gradientUnits="userSpaceOnUse">
<stop stop-color="#8438FF"/>
<stop offset="1" stop-color="white" stop-opacity="0"/>
</linearGradient>
</defs>
</svg>
